<svg xmlns="http://www.w3.org/2000/svg" width="1200" height="630" viewBox="0 0 1200 630" role="img" aria-label="Traza Pública | Seguimiento de trámites y expedientes">
  <rect width="1200" height="630" fill="#f7fafb"/>
  <rect x="72" y="72" width="1056" height="486" rx="8" fill="#ffffff" stroke="#d8e0e5"/>
  <rect x="112" y="112" width="72" height="72" rx="8" fill="#0d2538"/>
  <text x="148" y="158" fill="#ffffff" font-family="Arial, sans-serif" font-size="24" font-weight="700" text-anchor="middle">TP</text>
  <text x="208" y="144" fill="#0d2538" font-family="Arial, sans-serif" font-size="42" font-weight="700">Traza Pública</text>
  <text x="112" y="250" fill="#071823" font-family="Arial, sans-serif" font-size="64" font-weight="700">Orden y trazabilidad</text>
  <text x="112" y="326" fill="#071823" font-family="Arial, sans-serif" font-size="64" font-weight="700">para trámites y expedientes</text>
  <text x="112" y="394" fill="#40505c" font-family="Arial, sans-serif" font-size="28">Seguimiento, responsables, estatus, documentos, indicadores y reportes.</text>
  <rect x="112" y="452" width="238" height="54" rx="8" fill="#1d6b57"/>
  <text x="231" y="487" fill="#ffffff" font-family="Arial, sans-serif" font-size="22" font-weight="700" text-anchor="middle">Solicitar diagnóstico</text>
  <rect x="802" y="152" width="246" height="286" rx="8" fill="#123047"/>
  <rect x="830" y="184" width="190" height="34" rx="6" fill="#ffffff" opacity="0.85"/>
  <rect x="830" y="244" width="68" height="72" rx="6" fill="#6fc4a8"/>
  <rect x="914" y="220" width="68" height="96" rx="6" fill="#9b7432"/>
  <rect x="830" y="344" width="190" height="14" rx="7" fill="#ffffff" opacity="0.35"/>
  <rect x="830" y="374" width="144" height="14" rx="7" fill="#ffffff" opacity="0.35"/>
</svg>
